<svg width="100" height="100" viewBox="0 0 100 100" fill="none" xmlns="http://www.w3.org/2000/svg">
<circle cx="50" cy="50" r="49" fill="#C3ECBD" stroke="#171515" stroke-width="2"/>
<path d="M26.9375 22.3438V17.8438C27.6875 17.8438 28.5312 18.0937 29.4688 18.5938C30.4062 19.0938 31.3125 19.6875 32.1875 20.375C33.0625 21.0625 33.875 21.8437 34.625 22.7188C35.375 23.5312 35.9688 24.2188 36.4062 24.7812L64.0625 62C64.25 60.9375 64.4062 58.9688 64.5312 56.0938C64.7188 53.2188 64.7812 49.9688 64.7188 46.3438C64.7188 42.6562 64.625 38.8125 64.4375 34.8125C64.3125 30.8125 64.0938 27.0937 63.7812 23.6562C63.5312 20.1562 63.2188 17.2188 62.8438 14.8438C62.5312 12.4062 62.0938 10.9375 61.5312 10.4375C61.5312 9.5 61.6875 8.625 62 7.8125C62.375 7 63.0625 6.59375 64.0625 6.59375C65.0625 6.59375 65.875 7.15625 66.5 8.28125C67.125 9.40625 67.5938 10.6875 67.9062 12.125C68.2188 13.5 68.4375 14.875 68.5625 16.25C68.75 17.5625 68.8438 18.4375 68.8438 18.875C68.9062 20 68.9688 21.7188 69.0312 24.0312C69.0938 26.2812 69.1562 28.875 69.2188 31.8125C69.2812 34.6875 69.3438 37.75 69.4062 41C69.5312 44.25 69.625 47.3125 69.6875 50.1875C69.8125 53.0625 69.875 55.6875 69.875 58.0625C69.9375 60.375 70 62.0938 70.0625 63.2188C70.0625 64.0312 70.1875 64.7812 70.4375 65.4688C70.75 66.1562 71.0312 66.8438 71.2812 67.5312C71.5938 68.2188 71.875 68.9062 72.125 69.5938C72.375 70.2812 72.5 71 72.5 71.75C72.5 73 72.0312 73.9375 71.0938 74.5625C70.2188 75.125 69.2188 75.4062 68.0938 75.4062C67.4688 75.4062 66.9062 75.3438 66.4062 75.2188C65.9688 75.0312 65.5938 74.75 65.2812 74.375C65.0312 73.9375 64.875 73.4062 64.8125 72.7812C64.8125 72.1562 64.9375 71.3438 65.1875 70.3438C64.5 69.5312 63.4375 68.2188 62 66.4062C60.5625 64.5312 58.9375 62.4688 57.125 60.2188C55.375 57.9062 53.5 55.5 51.5 53C49.5 50.5 47.5938 48.125 45.7812 45.875C43.9688 43.5625 42.3438 41.5 40.9062 39.6875L37.7188 35.6562C37.5938 35.4688 37.375 35.2188 37.0625 34.9062L34.8125 32.6562C34.5 32.3438 34.25 32.125 34.0625 32C33.8125 35.625 33.8438 39.2812 34.1562 42.9688C34.4688 46.5938 34.875 50.2188 35.375 53.8438C35.9375 57.4688 36.4688 61.0938 36.9688 64.7188C37.5312 68.2812 37.8125 71.875 37.8125 75.5C37.8125 76.5 37.7188 77.4062 37.5312 78.2188C37.3438 78.9688 36.5938 79.5625 35.2812 80C34.0312 79.5625 33.1875 78.75 32.75 77.5625C32.3125 76.3125 32.3438 75.125 32.8438 74L26.9375 22.3438Z" fill="#2F2F2F"/>
</svg>
